PathFileType	4	(X/Y/Z)	s10c0101.trc
DataRate	CameraRate	NumFrames	NumMarkers	Units	OrigDataRate	OrigDataStartFrame	OrigNumFrames
200	200	4	49	mm	200	500	2000
Frame#	Time	racr			lacr			c7			jug			rlel			rdr			llel			ldr			s2			lic			ric			lasi			rasi			rpsi			lpsi			rgt			lgt			rth1			rth2			rth3			rth4			rlfc			rmfc			rsh1			rsh2			rsh3			rsh4			rlmal			rmmal			rcal			rtoe			rmt5			lth1			lth2			lth4			lth3			llfc			lmfc			llmal			lcal			lmt5			lsh1			lsh2			lsh3			lsh4			ltoe			SBIKE			LBIKE			RBIKE			
		X1	Y1	Z1	X2	Y2	Z2	X3	Y3	Z3	X4	Y4	Z4	X5	Y5	Z5	X6	Y6	Z6	X7	Y7	Z7	X8	Y8	Z8	X9	Y9	Z9	X10	Y10	Z10	X11	Y11	Z11	X12	Y12	Z12	X13	Y13	Z13	X14	Y14	Z14	X15	Y15	Z15	X16	Y16	Z16	X17	Y17	Z17	X18	Y18	Z18	X19	Y19	Z19	X20	Y20	Z20	X21	Y21	Z21	X22	Y22	Z22	X23	Y23	Z23	X24	Y24	Z24	X25	Y25	Z25	X26	Y26	Z26	X27	Y27	Z27	X28	Y28	Z28	X29	Y29	Z29	X30	Y30	Z30	X31	Y31	Z31	X32	Y32	Z32	X33	Y33	Z33	X34	Y34	Z34	X35	Y35	Z35	X36	Y36	Z36	X37	Y37	Z37	X38	Y38	Z38	X39	Y39	Z39	X40	Y40	Z40	X41	Y41	Z41	X42	Y42	Z42	X43	Y43	Z43	X44	Y44	Z44	X45	Y45	Z45	X46	Y46	Z46	X47	Y47	Z47	X48	Y48	Z48	X49	Y49	Z49	
500	2.5000	426.193201	1275.974393	-136.876797	358.932905	1274.046971	-444.687219	353.093500	1336.639646	-276.614191	357.894682	1185.073432	-270.427406	489.653308	1041.977559	-18.325031	639.496944	876.238857	-47.261003	415.019647	994.474025	-479.692153	623.264369	895.873019	-417.951000	-149.334532	1108.997858	-199.707065	4.702075	1133.371816	-367.713728	42.149888	1131.141454	-71.412953	32.070053	1042.342174	-337.768039	32.898623	1052.890618	-76.370002	-105.977671	1173.750057	-143.831472	-111.541859	1179.282432	-255.092643	-72.884512	1017.086546	-17.371400	-77.326718	1000.223484	-397.117685	25.271117	906.716468	2.994263	101.175243	862.092739	-11.998895	142.579367	787.563207	-16.038281	125.042559	888.967237	-22.229699	206.534551	705.017034	-28.396228	196.077383	695.506940	-146.177369	115.056700	629.276395	-7.055322	81.753842	548.755687	-25.772680	14.290759	495.712256	-35.840278	108.600236	534.120730	-49.169859	-51.588239	413.723702	-57.143221	-17.821178	418.753896	-133.487060	-102.090766	424.694195	-108.193894	85.034759	266.908955	-99.816201	2.506721	295.552445	-40.600277	24.176831	911.012751	-411.339529	106.633218	886.761160	-398.172644	124.584676	917.786109	-390.532640	167.229448	822.342455	-390.048835	262.404502	763.474444	-369.485638	259.172421	754.386110	-252.937877	182.595442	389.045469	-376.256617	138.048146	338.185792	-334.519300	313.733561	342.007890	-406.919567	219.430858	645.291722	-401.600198	235.258592	560.189449	-389.445490	204.623831	476.719715	-388.017008	263.781097	560.565727	-364.351048	385.165820	396.035659	-353.466767	-217.948471	834.114895	-213.865329	-103.986247	80.302609	-418.145682	-104.028138	80.336398	-18.180497	
501	2.5050	427.042149	1275.914470	-136.872319	360.258471	1274.284422	-445.159672	354.255450	1336.891344	-276.897925	358.987223	1185.350898	-270.747287	489.716295	1041.802494	-18.089992	639.470550	876.207263	-47.253548	415.067805	994.240466	-480.064799	623.392644	895.714327	-417.570857	-148.086053	1109.920486	-199.219949	6.079085	1133.004357	-368.082795	43.251275	1131.881344	-71.766208	33.152154	1041.908951	-337.766555	33.582128	1053.745688	-76.540864	-104.956906	1174.586966	-144.473662	-109.518849	1178.408529	-257.254575	-72.295481	1018.565256	-17.367809	-76.103314	1000.000966	-397.172479	26.110213	908.187030	3.268152	102.327049	863.970736	-11.576637	144.257605	789.782430	-15.322856	126.072826	891.038594	-21.847363	208.686431	707.442256	-27.658984	198.133329	698.114916	-145.455512	116.469004	632.148229	-6.452435	82.507393	552.063232	-25.295906	14.505388	499.788882	-35.781609	109.263863	537.325448	-48.687724	-52.017733	418.333800	-57.126154	-18.124513	423.012767	-133.560303	-102.552622	429.412843	-108.207493	84.389397	271.382592	-99.854909	1.906190	300.137532	-40.599002	24.445777	909.835670	-411.305487	106.614737	884.735693	-398.137453	124.914300	915.511495	-390.517949	166.441766	819.613723	-389.899420	260.849296	760.049988	-369.331306	257.961302	751.153430	-253.082550	183.483221	385.208076	-376.093383	139.009516	334.645490	-334.315275	314.656573	337.343392	-406.792380	218.307586	641.950377	-401.832403	234.877293	556.863693	-389.388941	204.942043	473.134952	-388.012176	263.438244	557.286613	-364.270913	386.487033	391.067741	-353.444124	-217.915203	834.131017	-213.882318	-103.953040	80.325698	-418.209942	-104.008965	80.337858	-18.167082	
502	2.5100	427.849251	1275.988231	-136.822105	361.747823	1274.596819	-445.513407	355.460863	1337.205994	-277.153598	360.144149	1185.714663	-271.109021	489.737223	1041.602731	-17.868180	639.446580	876.199369	-47.280510	415.348327	994.046820	-480.419125	623.489109	895.609865	-417.521006	-147.043113	1110.525127	-199.651470	7.418348	1132.810730	-368.570914	44.346072	1132.667431	-72.421432	34.417293	1041.598046	-338.044199	34.312815	1054.584030	-76.833054	-103.902302	1175.432834	-145.139750	-109.013551	1179.794595	-256.748137	-71.487540	1020.068816	-17.501321	-74.853686	999.744643	-397.184135	27.114234	909.742481	3.578488	103.638541	865.919785	-11.211782	146.131328	792.066099	-14.650010	127.178599	893.197461	-21.569598	210.974589	709.866628	-26.940094	200.494745	700.810173	-144.893157	118.101934	635.253889	-5.869382	83.434473	555.441307	-24.928141	15.138921	504.055402	-35.027684	110.048566	540.579499	-48.360188	-52.304761	423.021044	-57.119997	-18.248564	427.574658	-133.549889	-102.834338	434.145463	-108.152612	83.795618	275.868444	-99.910819	1.409648	304.779831	-40.660554	24.662904	908.758797	-411.415065	106.533806	882.653538	-398.098115	125.187499	913.177628	-390.539557	165.584206	816.829291	-389.742075	259.187583	756.772546	-369.403644	256.728044	747.987397	-253.248452	184.288574	381.489167	-376.265400	139.657582	331.413585	-334.656184	315.516692	332.814473	-406.828575	217.235688	638.340974	-401.801452	234.472198	553.332073	-389.430381	205.169372	469.472642	-388.107858	263.040573	554.229110	-364.353388	387.675068	386.002314	-353.443124	-217.707956	833.837486	-213.546525	-103.946528	80.329331	-418.189469	-104.008326	80.331425	-18.162481	
503	2.5150	428.639628	1276.062250	-136.567432	363.405846	1275.002866	-445.780088	356.784033	1337.364325	-277.592001	361.267097	1186.125253	-271.367066	489.739674	1041.404263	-17.662039	639.439042	876.192337	-47.264760	415.761194	994.093549	-480.887334	623.607776	895.489550	-417.486010	-145.935917	1111.547677	-200.262671	8.726415	1132.705147	-369.088856	45.365436	1133.451080	-73.115863	35.626343	1041.329770	-338.232993	35.075868	1055.485066	-77.142013	-102.904304	1176.124928	-145.955162	-107.588922	1179.833959	-257.729856	-70.613089	1021.601626	-17.650361	-73.619626	999.505894	-397.217426	28.299101	911.433783	3.804272	105.091079	868.035894	-10.885062	148.075275	794.415099	-14.089166	128.424471	895.385154	-21.426167	213.326306	712.387166	-26.289821	203.050968	702.872954	-144.160856	119.862188	638.251110	-5.259554	84.594115	558.905937	-24.518072	15.825721	507.957451	-34.884376	111.004169	543.851085	-48.046646	-52.517765	427.777777	-57.133917	-18.236661	432.151859	-133.522399	-103.039921	438.985760	-108.184007	83.340603	280.438834	-99.955479	1.000995	309.475859	-40.676000	24.865955	907.608844	-411.411900	106.394427	880.555509	-398.100314	125.423183	910.935323	-390.557956	164.617921	814.050041	-389.546542	257.450288	753.311865	-369.439461	255.848074	745.042389	-253.208596	184.968972	377.653082	-376.073587	140.474614	327.937654	-334.359049	316.201094	328.207024	-406.787162	216.029940	634.836152	-401.961706	233.988469	550.067290	-389.514574	205.320898	465.877135	-388.123649	262.550277	550.966123	-364.388999	388.716106	380.964195	-353.474126	-217.707562	833.823552	-213.552301	-103.954270	80.302934	-418.166503	-103.998767	80.334314	-18.153290	
